# xmcd
# 
# Track frame offsets:
#     150
#     14882
#     31726
#     56460
#     71971
#     88267
#     106135
#     125716
#     136468
#     150036
#     173225
#     195348
# 
# Disc length: 2942
# 
# Revision: 0
# Processed by: cddbd v1.5.2PL0 Copyright (c) Steve Scherf et al.
# Submitted via: fre:ac v1.0.31
# 
DISCID=9f0b7c0c
DTITLE=Steve Hill - Solo Recordings Volume 3
DYEAR=2016
DGENRE=Blues
TTITLE0=Damned
TTITLE1=Dangerous
TTITLE2=Still A Fool and A Rollin Stone
TTITLE3=Slowly Slipping Away
TTITLE4=Rhythm All Over
TTITLE5=Smoking Hot Machine
TTITLE6=Troubled Times
TTITLE7=Emily
TTITLE8=Can't Take It with You
TTITLE9=Rollin and Tumblin - Stop Breaking Down
TTITLE10=Going Down the Road Feeling Bad
TTITLE11=Walking Grave
EXTD=
EXTT0=
EXTT1=
EXTT2=
EXTT3=
EXTT4=
EXTT5=
EXTT6=
EXTT7=
EXTT8=
EXTT9=
EXTT10=
EXTT11=
PLAYORDER=
